<?xml version="1.0" encoding="UTF-8" standalone="no"?>
<svg
   xmlns:dc="http://purl.org/dc/elements/1.1/"
   xmlns:cc="http://creativecommons.org/ns#"
   xmlns:rdf="http://www.w3.org/1999/02/22-rdf-syntax-ns#"
   xmlns:svg="http://www.w3.org/2000/svg"
   xmlns="http://www.w3.org/2000/svg"
   t="1569683552617"
   class="icon"
   viewBox="0 0 1024 1024"
   version="1.1"
   p-id="11173"
   width="200"
   height="200"
   id="svg1432">
  <metadata
     id="metadata1436">
    <rdf:RDF>
      <cc:Work
         rdf:about="">
        <dc:format>image/svg+xml</dc:format>
        <dc:type
           rdf:resource="http://purl.org/dc/dcmitype/StillImage" />
        <dc:title></dc:title>
      </cc:Work>
    </rdf:RDF>
  </metadata>
  <defs
     id="defs1428">
    <style
       type="text/css"
       id="style1426" />
  </defs>
  <path
     d="M840 192h-56v-72c0-13.3-10.7-24-24-24H168c-13.3 0-24 10.7-24 24v272c0 13.3 10.7 24 24 24h592c13.3 0 24-10.7 24-24V256h32v200H465c-22.1 0-40 17.9-40 40v136h-44c-4.4 0-8 3.6-8 8v228c0 0.6 0.1 1.3 0.2 1.9-0.1 2-0.2 4.1-0.2 6.1 0 46.4 37.6 84 84 84s84-37.6 84-84c0-2.1-0.1-4.1-0.2-6.1 0.1-0.6 0.2-1.2 0.2-1.9V640c0-4.4-3.6-8-8-8h-44V520h351c22.1 0 40-17.9 40-40V232c0-22.1-17.9-40-40-40zM720 352H208V160h512v192zM477 876c0 11-9 20-20 20s-20-9-20-20V696h40v180z"
     p-id="11174"
     id="path1430"
     style="fill:#ffffff;fill-opacity:1" />
</svg>
