<?xml version="1.0" encoding="UTF-8" standalone="no"?>
<svg
   xmlns:dc="http://purl.org/dc/elements/1.1/"
   xmlns:cc="http://creativecommons.org/ns#"
   xmlns:rdf="http://www.w3.org/1999/02/22-rdf-syntax-ns#"
   xmlns:svg="http://www.w3.org/2000/svg"
   xmlns="http://www.w3.org/2000/svg"
   class="icon"
   viewBox="0 0 1024 1024"
   version="1.1"
   id="svg3761">
  <metadata
     id="metadata3767">
    <rdf:RDF>
      <cc:Work
         rdf:about="">
        <dc:format>image/svg+xml</dc:format>
        <dc:type
           rdf:resource="http://purl.org/dc/dcmitype/StillImage" />
        <dc:title></dc:title>
      </cc:Work>
    </rdf:RDF>
  </metadata>
  <defs
     id="defs3765" />
  <path
     d="M928 160H96c-17.7 0-32 14.3-32 32v640c0 17.7 14.3 32 32 32h832c17.7 0 32-14.3 32-32V192c0-17.7-14.3-32-32-32zm-40 110.8V792H136V270.8l-27.6-21.5 39.3-50.5 42.8 33.3h643.1l42.8-33.3 39.3 50.5-27.7 21.5zM833.6 232L512 482 190.4 232l-42.8-33.3-39.3 50.5 27.6 21.5 341.6 265.6a55.99 55.99 0 0 0 68.7 0L888 270.8l27.6-21.5-39.3-50.5-42.7 33.2z"
     id="path3759"
     style="fill:#ffffff;fill-opacity:1" />
</svg>
